<?xml version="1.0" encoding="UTF-8" standalone="no"?>
<!-- Created with Inkscape (http://www.inkscape.org/) -->

<svg
   xmlns:dc="http://purl.org/dc/elements/1.1/"
   xmlns:cc="http://creativecommons.org/ns#"
   xmlns:rdf="http://www.w3.org/1999/02/22-rdf-syntax-ns#"
   xmlns:svg="http://www.w3.org/2000/svg"
   xmlns="http://www.w3.org/2000/svg"
   xmlns:sodipodi="http://sodipodi.sourceforge.net/DTD/sodipodi-0.dtd"
   xmlns:inkscape="http://www.inkscape.org/namespaces/inkscape"
   width="210mm"
   height="297mm"
   viewBox="0 0 210 297"
   version="1.1"
   id="svg3108"
   inkscape:version="0.92.3 (2405546, 2018-03-11)"
   sodipodi:docname="blocks.svg">
  <defs
     id="defs3102" />
  <sodipodi:namedview
     id="base"
     pagecolor="#ffffff"
     bordercolor="#666666"
     borderopacity="1.0"
     inkscape:pageopacity="0.0"
     inkscape:pageshadow="2"
     inkscape:zoom="3.6430597"
     inkscape:cx="346.51134"
     inkscape:cy="730.25933"
     inkscape:document-units="mm"
     inkscape:current-layer="layer1"
     showgrid="false"
     inkscape:snap-nodes="false"
     inkscape:snap-others="false"
     inkscape:snap-bbox="true"
     inkscape:bbox-paths="true"
     inkscape:bbox-nodes="true"
     inkscape:window-width="1920"
     inkscape:window-height="1017"
     inkscape:window-x="-8"
     inkscape:window-y="-8"
     inkscape:window-maximized="1" />
  <metadata
     id="metadata3105">
    <rdf:RDF>
      <cc:Work
         rdf:about="">
        <dc:format>image/svg+xml</dc:format>
        <dc:type
           rdf:resource="http://purl.org/dc/dcmitype/StillImage" />
        <dc:title />
      </cc:Work>
    </rdf:RDF>
  </metadata>
  <g
     inkscape:label="Layer 1"
     inkscape:groupmode="layer"
     id="layer1">
    <g
       id="g3705"
       inkscape:export-xdpi="351.08527"
       inkscape:export-ydpi="351.08527"
       inkscape:export-filename="C:\Users\Josh\Documents\dev\hand-to-hand\img\blocks-256.png">
      <path
         inkscape:export-ydpi="702.16998"
         inkscape:export-xdpi="702.16998"
         inkscape:export-filename="C:\Users\Josh\Documents\dev\hand-to-hand\img\block-sand.png"
         id="path1062"
         d="M 78.025624,85.429717 Q 77.77427,83.405655 75.498853,83.405655 H 62.084478 q -2.275416,0 -2.513541,2.024062 h -0.03969 q 0,-2.553229 2.553229,-2.553229 h 13.414375 q 2.553229,0 2.553229,2.553229 h -0.02646"
         style="fill:#f8f4ed;stroke:none;stroke-width:0.26458332"
         inkscape:connector-curvature="0" />
      <path
         inkscape:export-ydpi="702.16998"
         inkscape:export-xdpi="702.16998"
         inkscape:export-filename="C:\Users\Josh\Documents\dev\hand-to-hand\img\block-sand.png"
         id="path1064"
         d="m 78.025624,85.429717 h 0.02646 v 0.238125 l -0.02646,-0.238125 m -18.494375,0 h 0.03969 q -0.03969,0.119063 -0.03969,0.264584 v -0.264584"
         style="fill:#93db24;stroke:none;stroke-width:0.26458332"
         inkscape:connector-curvature="0" />
      <path
         inkscape:export-ydpi="702.16998"
         inkscape:export-xdpi="702.16998"
         inkscape:export-filename="C:\Users\Josh\Documents\dev\hand-to-hand\img\block-sand.png"
         id="path1066"
         d="m 59.570937,85.429717 q 0.238125,-2.024062 2.513541,-2.024062 h 13.414375 q 2.275417,0 2.526771,2.024062 l 0.02646,0.238125 v 1.878542 q -4.312708,-2.06375 -9.260416,0 -4.312711,2.050521 -9.260419,0 v -1.852083 q 0,-0.145521 0.03969,-0.264584"
         style="fill:#e7dfc2;stroke:none;stroke-width:0.26458332"
         inkscape:connector-curvature="0" />
      <path
         inkscape:export-ydpi="702.16998"
         inkscape:export-xdpi="702.16998"
         inkscape:export-filename="C:\Users\Josh\Documents\dev\hand-to-hand\img\block-sand.png"
         id="path1068"
         d="m 59.531249,93.062946 3.082396,-3.042708 3.095625,3.042708 3.095625,-3.042708 3.069166,3.042708 3.095625,-3.042708 3.082396,3.042708 v 3.96875 l -3.082396,-3.042708 -3.095625,3.042708 -3.069166,-3.042708 -3.095625,3.042708 -3.095625,-3.042708 -0.383646,0.383646 -2.685521,2.659062 h -0.01323 v -3.96875 m 18.071042,7.487714 -0.33073,0.34395 q -0.635,0.50271 -1.772708,0.50271 H 62.084478 q -1.137708,0 -1.772708,-0.50271 l -0.3175,-0.33073 2.632604,-2.606142 3.095625,3.042712 3.095625,-3.042712 3.069167,3.042712 3.095625,-3.042712 2.619375,2.592922"
         style="fill:#c99869;stroke:none;stroke-width:0.26458332"
         inkscape:connector-curvature="0" />
      <path
         inkscape:export-ydpi="702.16998"
         inkscape:export-xdpi="702.16998"
         inkscape:export-filename="C:\Users\Josh\Documents\dev\hand-to-hand\img\block-sand.png"
         id="path1070"
         d="m 77.602291,100.55066 -2.619375,-2.592922 -3.095625,3.042712 -3.069167,-3.042712 -3.095625,3.042712 -3.095625,-3.042712 -2.632604,2.606142 q -0.436563,-0.595309 -0.463021,-1.587496 v -1.944688 h 0.01323 l 2.685521,-2.659062 0.383646,-0.383646 3.095625,3.042708 3.095625,-3.042708 3.069166,3.042708 3.095625,-3.042708 3.082396,3.042708 v 1.944688 q -0.02646,0.978958 -0.449791,1.574276 m 0.449791,-7.487714 -3.082396,-3.042708 -3.095625,3.042708 -3.069166,-3.042708 -3.095625,3.042708 -3.095625,-3.042708 -3.082396,3.042708 v -4.458229 q 4.947708,2.050521 9.260417,0 4.947708,-2.06375 9.260416,0 v 4.458229"
         style="fill:#c58f5c;stroke:none;stroke-width:0.26458332"
         inkscape:connector-curvature="0" />
      <path
         inkscape:export-ydpi="702.16998"
         inkscape:export-xdpi="702.16998"
         inkscape:export-filename="C:\Users\Josh\Documents\dev\hand-to-hand\img\block-sand.png"
         id="path1072"
         d="m 59.531249,87.546384 q 4.947708,2.050521 9.260417,0 4.947708,-2.06375 9.260416,0 v 1.058333 q -4.312708,-2.06375 -9.260416,0 -4.312709,2.050521 -9.260417,0 v -1.058333"
         style="fill:#bb8044;stroke:none;stroke-width:0.26458332"
         inkscape:connector-curvature="0" />
    </g>
    <g
       id="g3697"
       transform="translate(-2e-6,-3e-5)"
       inkscape:export-xdpi="351.08527"
       inkscape:export-ydpi="351.08527"
       inkscape:export-filename="C:\Users\Josh\Documents\dev\hand-to-hand\img\blocks-256.png">
      <path
         inkscape:export-ydpi="702.16998"
         inkscape:export-xdpi="702.16998"
         inkscape:export-filename="C:\Users\Josh\Documents\dev\hand-to-hand\img\block-stone-brown.png"
         id="path1014"
         d="m 78.052084,85.826592 v -0.396875 -0.06615 q 0,-0.277812 0.0397,-0.515937 l 0.0265,-0.119063 0.0132,-0.119062 0.0132,-0.02646 q 0.37042,-1.706563 2.46062,-1.706563 h 13.41438 q 2.55323,0 2.55323,2.553229 v 0.396875 q -0.0661,-2.420937 -2.55323,-2.420937 h -13.41438 q -1.91822,0 -2.39447,1.441979 -0.14553,0.423333 -0.15875,0.978958"
         style="fill:#d3ad89;stroke:none;stroke-width:0.26458332"
         inkscape:connector-curvature="0" />
      <path
         inkscape:export-ydpi="702.16998"
         inkscape:export-xdpi="702.16998"
         inkscape:export-filename="C:\Users\Josh\Documents\dev\hand-to-hand\img\block-stone-brown.png"
         id="path1016"
         d="m 78.052084,85.826592 q 0.0132,-0.555625 0.15875,-0.978958 h 3.71739 q 1.05833,0 1.05833,1.058333 v 4.034896 q 0,1.058333 -1.05833,1.058333 h -3.87614 v -5.172604 m 18.52083,11.086047 v 2.06375 0.17197 l -0.0265,0.264591 h -0.13229 -0.96573 q -0.76729,0 -0.76729,-0.780521 v -0.96573 q 0,-0.76729 0.76729,-0.76729 h 0.96573 l 0.15875,0.0132 m -6.31032,-2.883963 h 1.94469 q 1.05834,0 1.05834,1.058333 v 1.94469 q 0,1.05833 -1.05834,1.05833 h -1.94469 q -1.05833,0 -1.05833,-1.05833 v -1.94469 q 0,-1.058333 1.05833,-1.058333 m -5.5827,-5.212292 h 0.96573 q 0.78052,0 0.78052,0.767292 v 0.965729 q 0,0.780521 -0.78052,0.780521 h -0.96573 q -0.76729,0 -0.76729,-0.780521 v -0.965729 q 0,-0.767292 0.76729,-0.767292"
         style="fill:#ae7640;stroke:none;stroke-width:0.26458332"
         inkscape:connector-curvature="0" />
      <path
         inkscape:export-ydpi="702.16998"
         inkscape:export-xdpi="702.16998"
         inkscape:export-filename="C:\Users\Josh\Documents\dev\hand-to-hand\img\block-stone-brown.png"
         id="path1018"
         d="m 84.679894,88.816384 q -0.76729,0 -0.76729,0.767292 v 0.965729 q 0,0.780521 0.76729,0.780521 h 0.96573 q 0.78052,0 0.78052,-0.780521 v -0.965729 q 0,-0.767292 -0.78052,-0.767292 h -0.96573 m -6.46906,-3.96875 q 0.47625,-1.441979 2.39447,-1.441979 h 13.41438 q 2.48708,0 2.55323,2.420937 v 11.086047 l -0.15875,-0.0132 h -0.96573 q -0.76729,0 -0.76729,0.76729 v 0.96573 q 0,0.780521 0.76729,0.780521 h 0.96573 0.13229 q -0.0926,0.67468 -0.42333,1.13771 l -0.33073,0.34395 q -0.635,0.50271 -1.77271,0.50271 h -13.41438 q -1.1377,0 -1.7727,-0.50271 l -0.3175,-0.33073 q -0.43657,-0.595314 -0.46302,-1.587491 v -7.977193 h 3.87614 q 1.05833,0 1.05833,-1.058333 v -4.034896 q 0,-1.058333 -1.05833,-1.058333 h -3.71739 m 9.67052,0.79375 q 0,-1.058333 -1.05834,-1.058333 h -1.52135 q -1.05833,0 -1.05833,1.058333 v 1.521354 q 0,1.058333 1.05833,1.058333 h 1.52135 q 1.05834,0 1.05834,-1.058333 v -1.521354 m 2.38125,8.387291 q -1.05834,0 -1.05834,1.058334 v 1.94469 q 0,1.05833 1.05834,1.05833 h 1.94468 q 1.05834,0 1.05834,-1.05833 v -1.94469 q 0,-1.058334 -1.05834,-1.058334 h -1.94468 m -2.50032,1.984374 h -1.64041 q -0.88636,0 -0.88636,0.88636 v 1.62718 q 0,0.886361 0.88636,0.886361 h 1.64041 q 0.87313,0 0.87313,-0.886361 v -1.62718 q 0,-0.88636 -0.87313,-0.88636"
         style="fill:#c58f5c;stroke:none;stroke-width:0.26458332"
         inkscape:connector-curvature="0" />
      <path
         inkscape:export-ydpi="702.16998"
         inkscape:export-xdpi="702.16998"
         inkscape:export-filename="C:\Users\Josh\Documents\dev\hand-to-hand\img\block-stone-brown.png"
         id="path1020"
         d="m 87.762284,96.013049 q 0.87313,0 0.87313,0.88636 v 1.62718 q 0,0.886361 -0.87313,0.886361 h -1.64041 q -0.88636,0 -0.88636,-0.886361 v -1.62718 q 0,-0.88636 0.88636,-0.88636 h 1.64041 m 0.11907,-10.371665 v 1.521354 q 0,1.058333 -1.05834,1.058333 h -1.52135 q -1.05833,0 -1.05833,-1.058333 v -1.521354 q 0,-1.058333 1.05833,-1.058333 h 1.52135 q 1.05834,0 1.05834,1.058333"
         style="fill:#bb8044;stroke:none;stroke-width:0.26458332"
         inkscape:connector-curvature="0" />
    </g>
    <g
       id="g3773"
       transform="translate(5.214407,4.286811)"
       inkscape:export-xdpi="351.08527"
       inkscape:export-ydpi="351.08527"
       inkscape:export-filename="C:\Users\Josh\Documents\dev\hand-to-hand\img\blocks-256.png">
      <path
         inkscape:export-ydpi="702.16998"
         inkscape:export-xdpi="702.16998"
         inkscape:export-filename="C:\Users\Josh\Documents\dev\hand-to-hand\img\block-ice.png"
         id="path2288"
         d="m 54.356531,99.663738 h -0.03969 v -0.15875 q 0.07937,-2.394479 2.553229,-2.394479 h 13.414375 q 2.553229,0 2.553229,2.553229 h -0.02646 Q 72.559865,97.639676 70.284448,97.639676 H 56.870073 q -2.275417,0 -2.513542,2.024062"
         style="fill:#ffffff;stroke:none;stroke-width:0.26458332"
         inkscape:connector-curvature="0" />
      <path
         inkscape:export-ydpi="702.16998"
         inkscape:export-xdpi="702.16998"
         inkscape:export-filename="C:\Users\Josh\Documents\dev\hand-to-hand\img\block-ice.png"
         id="path2290"
         d="m 54.316844,107.29697 v -4.45823 q 4.947708,2.05052 9.260417,0 4.947708,-2.06375 9.260416,0 v 4.45823 l -3.082396,-3.04271 -3.095625,3.04271 -3.069166,-3.04271 -3.095625,3.04271 -3.095625,-3.04271 -3.082396,3.04271 m 0,3.96875 h 0.01323 l 2.685521,-2.65906 0.383646,-0.38365 3.095625,3.04271 3.095625,-3.04271 3.069166,3.04271 3.095625,-3.04271 3.082396,3.04271 v 1.94469 q -0.02646,0.97895 -0.449791,1.57427 l -2.619375,-2.59292 -3.095625,3.04271 -3.069167,-3.04271 -3.095625,3.04271 -3.095625,-3.04271 -2.632604,2.60615 q -0.436563,-0.59532 -0.463021,-1.5875 v -1.94469"
         style="fill:#bbcbcc;stroke:none;stroke-width:0.26458332"
         inkscape:connector-curvature="0" />
      <path
         inkscape:export-ydpi="702.16998"
         inkscape:export-xdpi="702.16998"
         inkscape:export-filename="C:\Users\Josh\Documents\dev\hand-to-hand\img\block-ice.png"
         id="path2292"
         d="m 54.316844,99.888634 q 0,-0.119062 0.03969,-0.224896 0.238125,-2.024062 2.513542,-2.024062 h 13.414375 q 2.275417,0 2.526771,2.024062 l 0.02646,0.198438 v 1.918224 q -4.312708,-2.063745 -9.260416,0 -4.312711,2.05053 -9.260419,0 v -1.891766"
         style="fill:#defbff;stroke:none;stroke-width:0.26458332"
         inkscape:connector-curvature="0" />
      <path
         inkscape:export-ydpi="702.16998"
         inkscape:export-xdpi="702.16998"
         inkscape:export-filename="C:\Users\Josh\Documents\dev\hand-to-hand\img\block-ice.png"
         id="path2294"
         d="m 54.316844,102.83874 v -1.05834 q 4.947708,2.05053 9.260417,0 4.947708,-2.063745 9.260416,0 v 1.05834 q -4.312708,-2.06375 -9.260416,0 -4.312709,2.05052 -9.260417,0"
         style="fill:#bae4e9;stroke:none;stroke-width:0.26458332"
         inkscape:connector-curvature="0" />
      <path
         inkscape:export-ydpi="702.16998"
         inkscape:export-xdpi="702.16998"
         inkscape:export-filename="C:\Users\Josh\Documents\dev\hand-to-hand\img\block-ice.png"
         id="path2296"
         d="m 54.316844,99.663738 h 0.03969 q -0.03969,0.105834 -0.03969,0.224896 v -0.224896 m 18.494375,0 h 0.02646 v 0.198438 l -0.02646,-0.198438"
         style="fill:#93db24;stroke:none;stroke-width:0.26458332"
         inkscape:connector-curvature="0" />
      <path
         inkscape:export-ydpi="702.16998"
         inkscape:export-xdpi="702.16998"
         inkscape:export-filename="C:\Users\Josh\Documents\dev\hand-to-hand\img\block-ice.png"
         id="path2298"
         d="m 54.316844,107.29697 3.082396,-3.04271 3.095625,3.04271 3.095625,-3.04271 3.069166,3.04271 3.095625,-3.04271 3.082396,3.04271 v 3.96875 l -3.082396,-3.04271 -3.095625,3.04271 -3.069166,-3.04271 -3.095625,3.04271 -3.095625,-3.04271 -0.383646,0.38365 -2.685521,2.65906 h -0.01323 v -3.96875 m 18.071042,7.48771 -0.33073,0.34395 q -0.635,0.50271 -1.772708,0.50271 H 56.870073 q -1.137708,0 -1.772708,-0.50271 l -0.3175,-0.33072 2.632604,-2.60615 3.095625,3.04271 3.095625,-3.04271 3.069167,3.04271 3.095625,-3.04271 2.619375,2.59292"
         style="fill:#c1d1d2;stroke:none;stroke-width:0.26458332"
         inkscape:connector-curvature="0" />
    </g>
    <g
       id="g3825"
       transform="translate(21.963499,8.523583)"
       inkscape:export-xdpi="351.08527"
       inkscape:export-ydpi="351.08527"
       inkscape:export-filename="C:\Users\Josh\Documents\dev\hand-to-hand\img\blocks-256.png">
      <path
         inkscape:export-ydpi="702.16998"
         inkscape:export-xdpi="702.16998"
         inkscape:export-filename="C:\Users\Josh\Documents\dev\hand-to-hand\img\block-purple.png"
         id="path936"
         d="m 56.128272,95.426966 q 0.238125,-2.024062 2.513542,-2.024062 h 13.414375 q 2.275417,0 2.526771,2.024062 l 0.02646,0.238125 v 3.426354 l -3.082398,-3.042708 -3.095625,3.042708 -3.069166,-3.042708 -3.095625,3.042708 -3.095625,-3.042708 -3.082396,3.042708 v -3.399896 q 0,-0.14552 0.03969,-0.264583"
         style="fill:#9c73ae;stroke:none;stroke-width:0.26458332"
         inkscape:connector-curvature="0" />
      <path
         inkscape:export-ydpi="702.16998"
         inkscape:export-xdpi="702.16998"
         inkscape:export-filename="C:\Users\Josh\Documents\dev\hand-to-hand\img\block-purple.png"
         id="path938"
         d="m 56.128272,95.426966 q -0.03969,0.119063 -0.03969,0.264583 v -0.264583 h 0.03969 m 18.454688,0 h 0.02646 v 0.238125 l -0.02646,-0.238125"
         style="fill:#93db24;stroke:none;stroke-width:0.26458332"
         inkscape:connector-curvature="0" />
      <path
         inkscape:export-ydpi="702.16998"
         inkscape:export-xdpi="702.16998"
         inkscape:export-filename="C:\Users\Josh\Documents\dev\hand-to-hand\img\block-purple.png"
         id="path940"
         d="M 74.58296,95.426966 Q 74.331606,93.402904 72.056189,93.402904 H 58.641814 q -2.275417,0 -2.513542,2.024062 h -0.03969 q 0,-2.553229 2.553229,-2.553229 h 13.414375 q 2.553229,0 2.553229,2.553229 h -0.02646"
         style="fill:#b699c4;stroke:none;stroke-width:0.26458332"
         inkscape:connector-curvature="0" />
      <path
         inkscape:export-ydpi="702.16998"
         inkscape:export-xdpi="702.16998"
         inkscape:export-filename="C:\Users\Josh\Documents\dev\hand-to-hand\img\block-purple.png"
         id="path942"
         d="m 56.088585,99.091445 3.082396,-3.042708 3.095625,3.042708 3.095625,-3.042708 3.069166,3.042708 3.095625,-3.042708 3.082396,3.042708 v 1.322915 l -3.082396,-3.042706 -3.095625,3.042706 -3.069166,-3.042706 -3.095625,3.042706 -3.095625,-3.042706 -3.082396,3.042706 v -1.322915"
         style="fill:#85a3a5;stroke:none;stroke-width:0.26458332"
         inkscape:connector-curvature="0" />
      <path
         inkscape:export-ydpi="702.16998"
         inkscape:export-xdpi="702.16998"
         inkscape:export-filename="C:\Users\Josh\Documents\dev\hand-to-hand\img\block-purple.png"
         id="path944"
         d="m 74.609418,107.02894 -3.082396,-3.0427 -3.095625,3.0427 -3.069166,-3.0427 -3.095625,3.0427 -3.095625,-3.0427 -0.383646,0.38364 -2.685521,2.65906 h -0.01323 v -3.96875 l 3.082396,-3.0427 3.095625,3.0427 3.095625,-3.0427 3.069166,3.0427 3.095625,-3.0427 3.082396,3.0427 v 3.96875 m -18.057812,3.53219 2.632604,-2.60614 3.095625,3.0427 3.095625,-3.0427 3.069167,3.0427 3.095625,-3.0427 2.619375,2.59291 -0.33073,0.34396 q -0.635,0.50271 -1.772708,0.50271 H 58.641814 q -1.137708,0 -1.772708,-0.50271 l -0.3175,-0.33073"
         style="fill:#acc0c1;stroke:none;stroke-width:0.26458332"
         inkscape:connector-curvature="0" />
      <path
         inkscape:export-ydpi="702.16998"
         inkscape:export-xdpi="702.16998"
         inkscape:export-filename="C:\Users\Josh\Documents\dev\hand-to-hand\img\block-purple.png"
         id="path946"
         d="m 56.551606,110.56113 q -0.436563,-0.59531 -0.463021,-1.5875 v -1.94469 h 0.01323 l 2.685521,-2.65906 0.383646,-0.38364 3.095625,3.0427 3.095625,-3.0427 3.069166,3.0427 3.095625,-3.0427 3.082396,3.0427 v 1.94469 q -0.02646,0.97896 -0.449791,1.57427 l -2.619375,-2.59291 -3.095625,3.0427 -3.069167,-3.0427 -3.095625,3.0427 -3.095625,-3.0427 -2.632604,2.60614 m -0.463021,-10.14677 3.082396,-3.042706 3.095625,3.042706 3.095625,-3.042706 3.069166,3.042706 3.095625,-3.042706 3.082396,3.042706 v 2.64583 l -3.082396,-3.0427 -3.095625,3.0427 -3.069166,-3.0427 -3.095625,3.0427 -3.095625,-3.0427 -3.082396,3.0427 v -2.64583"
         style="fill:#bbcbcc;stroke:none;stroke-width:0.26458332"
         inkscape:connector-curvature="0" />
    </g>
    <g
       id="g3859"
       transform="translate(6.641505,5.108489)"
       inkscape:export-xdpi="351.08527"
       inkscape:export-ydpi="351.08527"
       inkscape:export-filename="C:\Users\Josh\Documents\dev\hand-to-hand\img\blocks-256.png">
      <path
         inkscape:export-ydpi="702.16998"
         inkscape:export-xdpi="702.16998"
         inkscape:export-filename="C:\Users\Josh\block-zigzag.png"
         id="path1028"
         d="m 89.931409,102.50654 v -3.267604 q 0.01323,-0.449791 0.119062,-0.820208 l 1.508125,-1.494896 0.926042,-0.105833 h 1.865312 l 1.74625,1.719791 1.75948,-1.719791 h 2.67229 l 1.73302,1.719791 1.75948,-1.719791 h 1.87854 l 0.89959,0.105833 1.56104,1.534583 0.0794,0.542396 v 3.505729 l -3.08239,-3.042708 -3.09563,3.042708 -3.069165,-3.042708 -3.095625,3.042708 -3.095625,-3.042708 -0.383645,0.383646 -2.685521,2.659062 m 18.520831,3.96875 v 3.96875 l -3.08239,-3.04271 -3.09563,3.04271 -3.069165,-3.04271 -3.095625,3.04271 -3.095625,-3.04271 -0.383646,0.38365 -2.685521,2.65906 h -0.01323 v -3.96875 l 3.082396,-3.04271 3.095625,3.04271 3.095625,-3.04271 3.069166,3.04271 3.09563,-3.04271 3.08239,3.04271 m -0.44979,7.48771 -0.33073,0.34396 q -0.635,0.50271 -1.77271,0.50271 H 92.484638 q -1.137708,0 -1.772708,-0.50271 l -0.3175,-0.33073 2.632604,-2.60615 3.095625,3.04271 3.095625,-3.04271 3.069166,3.04271 3.09563,-3.04271 2.61937,2.59292"
         style="fill:#acc0c1;stroke:none;stroke-width:0.26458332"
         inkscape:connector-curvature="0" />
      <path
         inkscape:export-ydpi="702.16998"
         inkscape:export-xdpi="702.16998"
         inkscape:export-filename="C:\Users\Josh\block-zigzag.png"
         id="path1030"
         d="m 108.00245,113.963 -2.61937,-2.59292 -3.09563,3.04271 -3.069166,-3.04271 -3.095625,3.04271 -3.095625,-3.04271 -2.632604,2.60615 q -0.436563,-0.59531 -0.463021,-1.5875 v -1.94469 h 0.01323 l 2.685521,-2.65906 0.383646,-0.38365 3.095625,3.04271 3.095625,-3.04271 3.069164,3.04271 3.09563,-3.04271 3.08239,3.04271 v 1.94469 q -0.0265,0.97896 -0.44979,1.57427 m 0.44979,-11.45646 v 3.96875 l -3.08239,-3.04271 -3.09563,3.04271 -3.069164,-3.04271 -3.095625,3.04271 -3.095625,-3.04271 -3.082396,3.04271 v -3.96875 l 2.685521,-2.659062 0.383645,-0.383646 3.095625,3.042708 3.095625,-3.042708 3.069164,3.042708 3.09563,-3.042708 3.08239,3.042708 h 0.0132 m -0.0926,-4.048125 -1.56104,-1.534583 q 1.24354,0.291042 1.56104,1.534583 m -4.33917,-1.640416 -1.75948,1.719791 -1.73302,-1.719791 h 3.4925 m -6.164789,0 -1.75948,1.719791 -1.74625,-1.719791 h 3.50573 m -6.297084,0.105833 -1.508125,1.494896 q 0.304271,-1.190625 1.508125,-1.494896"
         style="fill:#bbcbcc;stroke:none;stroke-width:0.26458332"
         inkscape:connector-curvature="0" />
      <path
         inkscape:export-ydpi="702.16998"
         inkscape:export-xdpi="702.16998"
         inkscape:export-filename="C:\Users\Josh\block-zigzag.png"
         id="path1032"
         d="m 91.558596,96.923832 q -1.203854,0.304271 -1.508125,1.494896 -0.105833,0.370417 -0.119062,0.820208 v -0.396875 l 0.01323,-0.330729 q 0.145521,-2.076979 2.248958,-2.209271 l 0.291042,-0.01323 h 13.414371 l 0.26459,0.01323 q 2.28864,0.119063 2.28864,2.54 v 0.15875 h -0.0132 l -0.0794,-0.542396 q -0.3175,-1.243541 -1.56104,-1.534583 l -0.89959,-0.105833 h -1.87854 -3.4925 -2.672289 -3.50573 -1.865312 l -0.926042,0.105833"
         style="fill:#cfdada;stroke:none;stroke-width:0.26458332"
         inkscape:connector-curvature="0" />
      <path
         inkscape:export-ydpi="702.16998"
         inkscape:export-xdpi="702.16998"
         inkscape:export-filename="C:\Users\Josh\block-zigzag.png"
         id="path1034"
         d="m 108.45224,99.119874 v 3.386666 h -0.0132 v -3.505729 l 0.0132,0.119063"
         style="fill:#c58f5c;stroke:none;stroke-width:0.26458332"
         inkscape:connector-curvature="0" />
      <path
         inkscape:export-ydpi="702.16998"
         inkscape:export-xdpi="702.16998"
         inkscape:export-filename="C:\Users\Josh\block-zigzag.png"
         id="path1036"
         d="m 108.45224,99.119874 -0.0132,-0.119063 h 0.0132 v 0.119063"
         style="fill:#cfa67c;stroke:none;stroke-width:0.26458332"
         inkscape:connector-curvature="0" />
    </g>
    <g
       id="g3706"
       transform="translate(0.742525,-1.72627)"
       inkscape:export-filename="C:\Users\Josh\Documents\dev\hand-to-hand\img\blocks-256.png"
       inkscape:export-xdpi="351.08527"
       inkscape:export-ydpi="351.08527">
      <path
         id="path914"
         d="M 95.830389,87.552865 V 87.15599 q 0,-2.55323 2.553229,-2.55323 h 13.414372 q 2.55323,0 2.55323,2.55323 v 0.396875 q -0.0661,-2.420938 -2.55323,-2.420938 H 98.383618 q -2.487083,0 -2.553229,2.420938"
         style="fill:#93db24;stroke:none;stroke-width:0.26458332"
         inkscape:connector-curvature="0" />
      <path
         id="path916"
         d="m 114.35122,90.820469 v 1.322916 l -3.08239,-3.042708 -3.09563,3.042708 -3.06917,-3.042708 -3.09562,3.042708 -3.095625,-3.042708 -3.082396,3.042708 v -1.322916 l 3.082396,-3.042709 3.095625,3.042709 3.09562,-3.042709 3.06917,3.042709 3.09563,-3.042709 3.08239,3.042709"
         style="fill:#bb8044;stroke:none;stroke-width:0.26458332"
         inkscape:connector-curvature="0" />
      <path
         id="path918"
         d="m 114.35122,90.820469 -3.08239,-3.042709 -3.09563,3.042709 -3.06917,-3.042709 -3.09562,3.042709 -3.095625,-3.042709 -3.082396,3.042709 v -3.267604 q 0.06615,-2.420938 2.553229,-2.420938 h 13.414372 q 2.48709,0 2.55323,2.420938 v 3.267604"
         style="fill:#80be1f;stroke:none;stroke-width:0.26458332"
         inkscape:connector-curvature="0" />
      <path
         id="path920"
         d="m 114.35122,92.143385 v 2.645833 l -3.08239,-3.042708 -3.09563,3.042708 -3.06917,-3.042708 -3.09562,3.042708 -3.095625,-3.042708 -3.082396,3.042708 v -2.645833 l 3.082396,-3.042708 3.095625,3.042708 3.09562,-3.042708 3.06917,3.042708 3.09563,-3.042708 3.08239,3.042708 m 0,6.614583 v 1.944692 q -0.0265,0.97895 -0.44979,1.57427 l -2.61937,-2.59292 -3.09563,3.04271 -3.06917,-3.04271 -3.09562,3.04271 -3.095626,-3.04271 -2.632604,2.60615 q -0.436563,-0.59532 -0.463021,-1.5875 v -1.944692 h 0.01323 l 2.685521,-2.659062 0.383646,-0.383646 3.095624,3.042708 3.09562,-3.042708 3.06917,3.042708 3.09563,-3.042708 3.08239,3.042708"
         style="fill:#c58f5c;stroke:none;stroke-width:0.26458332"
         inkscape:connector-curvature="0" />
      <path
         id="path922"
         d="m 114.35122,98.757968 -3.08239,-3.042708 -3.09563,3.042708 -3.06917,-3.042708 -3.09562,3.042708 -3.095625,-3.042708 -0.383646,0.383646 -2.685521,2.659062 h -0.01323 v -3.96875 l 3.082396,-3.042708 3.095626,3.042708 3.09562,-3.042708 3.06917,3.042708 3.09563,-3.042708 3.08239,3.042708 v 3.96875 m -0.44979,3.518962 -0.33073,0.34396 q -0.635,0.5027 -1.77271,0.5027 H 98.383618 q -1.137708,0 -1.772708,-0.5027 l -0.3175,-0.33073 2.632604,-2.60615 3.095626,3.04271 3.09562,-3.04271 3.06917,3.04271 3.09563,-3.04271 2.61937,2.59292"
         style="fill:#c99869;stroke:none;stroke-width:0.26458332"
         inkscape:connector-curvature="0" />
    </g>
  </g>
</svg>
