<?xml version="1.0" encoding="UTF-8" standalone="no"?>
<!-- Created with Inkscape (http://www.inkscape.org/) -->

<svg
   xmlns:dc="http://purl.org/dc/elements/1.1/"
   xmlns:cc="http://creativecommons.org/ns#"
   xmlns:rdf="http://www.w3.org/1999/02/22-rdf-syntax-ns#"
   xmlns:svg="http://www.w3.org/2000/svg"
   xmlns="http://www.w3.org/2000/svg"
   xmlns:sodipodi="http://sodipodi.sourceforge.net/DTD/sodipodi-0.dtd"
   xmlns:inkscape="http://www.inkscape.org/namespaces/inkscape"
   width="210mm"
   height="297mm"
   viewBox="0 0 210 297"
   version="1.1"
   id="svg1069"
   inkscape:version="0.92.3 (2405546, 2018-03-11)"
   sodipodi:docname="enemies.svg">
  <defs
     id="defs1063" />
  <sodipodi:namedview
     id="base"
     pagecolor="#ffffff"
     bordercolor="#666666"
     borderopacity="1.0"
     inkscape:pageopacity="0.0"
     inkscape:pageshadow="2"
     inkscape:zoom="4.1846032"
     inkscape:cx="400"
     inkscape:cy="560"
     inkscape:document-units="mm"
     inkscape:current-layer="layer1"
     showgrid="false"
     showguides="true"
     inkscape:guide-bbox="true"
     inkscape:snap-nodes="false"
     inkscape:snap-bbox="true"
     inkscape:snap-others="false"
     inkscape:bbox-paths="true"
     inkscape:bbox-nodes="true"
     inkscape:window-width="1920"
     inkscape:window-height="1017"
     inkscape:window-x="-8"
     inkscape:window-y="-8"
     inkscape:window-maximized="1">
    <inkscape:grid
       type="xygrid"
       id="grid1692"
       units="mm"
       spacingx="2"
       spacingy="2"
       enabled="true" />
    <sodipodi:guide
       position="102.67297,158.90345"
       orientation="0,1"
       id="guide5397"
       inkscape:locked="false" />
    <sodipodi:guide
       position="107.42406,147.77772"
       orientation="0,1"
       id="guide5399"
       inkscape:locked="false" />
    <sodipodi:guide
       position="97.484993,162.85897"
       orientation="1,0"
       id="guide5401"
       inkscape:locked="false" />
  </sodipodi:namedview>
  <metadata
     id="metadata1066">
    <rdf:RDF>
      <cc:Work
         rdf:about="">
        <dc:format>image/svg+xml</dc:format>
        <dc:type
           rdf:resource="http://purl.org/dc/dcmitype/StillImage" />
        <dc:title></dc:title>
      </cc:Work>
    </rdf:RDF>
  </metadata>
  <g
     inkscape:label="Layer 1"
     inkscape:groupmode="layer"
     id="layer1">
    <g
       id="g982"
       transform="matrix(0.26458333,0,0,0.26458333,64.470003,88.209364)"
       inkscape:export-xdpi="199.69597"
       inkscape:export-ydpi="199.69597">
      <path
         id="path817"
         d="M 87.65,180.95 Q 86,177.5 87.4,174 q 1.35,-3.4 4.95,-4.85 2.25,-0.85 4.55,-0.6 2,0.4 4.1,1.25 5.75,2.3 8.9,6.35 3.1,4.15 1.75,7.55 -1.4,3.5 -6.45,4.25 -5.1,0.85 -10.85,-1.45 -2.1,-0.85 -3.85,-1.95 -1.85,-1.35 -2.85,-3.6"
         inkscape:connector-curvature="0"
         style="fill:#484848;stroke:none" />
      <path
         id="path819"
         d="m 76.9,174.8 -1.1,-0.05 q -4.7,-0.7 -10.7,-3.2 -12.55,-5.75 -11.5,-9.65 l 0.15,-0.3 q 3.55,-7.7 16.65,-2.7 3.6,1.4 6.05,3.5 1.85,1.35 3.25,3.1 l 0.7,0.9 q 0.35,1.55 0.15,3.25 -0.1,1.55 -0.75,3.1 L 78.75,174 q -0.75,0.5 -1.85,0.8"
         inkscape:connector-curvature="0"
         style="fill:#ececec;stroke:none" />
      <path
         id="path821"
         d="m 57.4,155.55 q 5.45,-6.55 16.75,1.7 3.1,2.3 5,4.9 1.4,1.85 2.3,3.85 l 0.45,0.95 q -0.05,1.7 -0.7,3.3 -0.5,1.45 -1.55,2.8 -0.45,0.6 -1.35,0.95 l -1.95,0.3 -1.05,-0.35 q -4.4,-1.9 -9.5,-5.9 -10.7,-8.75 -8.6,-12.25 l 0.2,-0.25"
         inkscape:connector-curvature="0"
         style="fill:#ffffff;stroke:none" />
      <path
         id="path823"
         d="m 88.5,157.55 q 7.55,0 12.9,5.35 3.8,3.8 4.9,8.75 l -6.35,6.2 -1.15,1.3 q -0.3,0.5 -0.25,1.1 0.25,4.8 -3.15,6.75 -2.85,1.55 -6.9,1.55 -7.55,0 -12.9,-1.8 l -2.4,-0.95 q -2.95,-4.4 -2.95,-10 0,-7.55 5.35,-12.9 5.35,-5.35 12.9,-5.35"
         inkscape:connector-curvature="0"
         style="fill:#404040;stroke:none" />
      <path
         id="path825"
         d="m 90.05,171.6 q 0.9,0.9 0.9,2.05 0,1.2 -0.9,2 -0.85,0.85 -2,0.85 -1.2,0 -2.1,-0.85 -0.8,-0.8 -0.8,-2 l 0.05,-0.45 4.75,-1.7 0.1,0.1 m -7.2,5.25 q 1.75,0 2.95,1 l 1.1,1.4 v 0.45 l -0.3,0.3 h -0.45 q -0.25,-0.1 -0.35,-0.3 l -0.7,-0.95 Q 84.15,178 82.85,178 q -1.3,0 -2.2,0.75 -0.55,0.4 -0.75,0.9 l -0.25,0.3 -0.45,0.1 -0.35,-0.3 -0.05,-0.45 q 0.25,-0.85 1.05,-1.45 1.3,-1 3,-1 m -3.1,-1.2 q -0.85,0.85 -2,0.85 -1.25,0 -2.1,-0.85 -0.8,-0.8 -0.8,-2 0,-1.1 0.75,-2 l 4.95,1.3 0.1,0.7 q 0,1.2 -0.9,2"
         inkscape:connector-curvature="0"
         style="fill:#999999;stroke:none" />
      <path
         id="path827"
         d="m 102.5,174.75 -1.1,0.05 q -1.1,-0.3 -1.85,-0.8 -0.75,-0.55 -1.05,-1.25 -0.65,-1.55 -0.75,-3.1 -0.2,-1.7 0.15,-3.25 l 0.7,-0.9 q 1.4,-1.75 3.25,-3.1 2.45,-2.1 6.05,-3.5 13.1,-5 16.65,2.7 l 0.15,0.3 q 1.05,3.9 -11.5,9.65 -6,2.5 -10.7,3.2"
         inkscape:connector-curvature="0"
         style="fill:#ececec;stroke:none" />
      <path
         id="path829"
         d="m 121.1,155.8 q 2.1,3.5 -8.6,12.25 -5.1,4 -9.5,5.9 L 101.95,174.3 100,174 q -0.9,-0.35 -1.35,-0.95 -1.05,-1.35 -1.55,-2.8 -0.65,-1.6 -0.7,-3.3 L 96.85,166 q 0.9,-2 2.3,-3.85 1.9,-2.6 5,-4.9 11.3,-8.25 16.75,-1.7 l 0.2,0.25"
         inkscape:connector-curvature="0"
         style="fill:#ffffff;stroke:none" />
    </g>
    <g
       id="g991"
       transform="matrix(0.26458333,0,0,0.26458333,62.268954,88.209364)"
       inkscape:export-xdpi="199.69597"
       inkscape:export-ydpi="199.69597">
      <path
         id="path831"
         d="m 154.05,173.6 -5.15,1.25 q -13.65,2.3 -14.95,-1.5 L 133.9,173 q -0.25,-1.6 0.05,-3.05 2.55,2.65 13.1,3.6 l 7,0.05"
         inkscape:connector-curvature="0"
         style="fill:#ececec;stroke:none" />
      <path
         id="path833"
         d="m 154.05,173.6 -7,-0.05 q -10.55,-0.95 -13.1,-3.6 -0.8,-0.8 -0.85,-1.75 v -0.3 q 0.85,-8.45 14.8,-8 3.55,0.15 6.35,1.05 l 0.55,0.2 q 2.2,0.75 4.05,1.9 l 0.95,0.5 q 0.9,1.4 1.25,3.15 0.35,1.35 0.3,2.9 v 0.25 q -0.05,0.75 -0.6,1.55 l -1.4,1.35 -1.1,0.3 -4.2,0.55"
         inkscape:connector-curvature="0"
         style="fill:#ffffff;stroke:none" />
      <path
         id="path835"
         d="m 189.9,176.15 q 3.1,4.15 1.75,7.55 -1.4,3.5 -6.45,4.25 -5.1,0.85 -10.85,-1.45 -2.1,-0.85 -3.85,-1.95 -1.85,-1.35 -2.85,-3.6 -1.65,-3.45 -0.25,-6.95 1.35,-3.4 4.95,-4.85 2.25,-0.85 4.55,-0.6 l 4.1,1.25 q 5.75,2.3 8.9,6.35"
         inkscape:connector-curvature="0"
         style="fill:#484848;stroke:none" />
      <path
         id="path837"
         d="m 179.95,177.85 -1.15,1.3 q -0.3,0.5 -0.25,1.1 0.25,4.8 -3.15,6.75 -2.85,1.55 -6.9,1.55 -7.55,0 -12.9,-1.8 l -2.4,-0.95 q -2.95,-4.4 -2.95,-10 0,-7.55 5.35,-12.9 5.35,-5.35 12.9,-5.35 7.55,0 12.9,5.35 3.8,3.8 4.9,8.75 l -6.35,6.2"
         inkscape:connector-curvature="0"
         style="fill:#404040;stroke:none" />
      <path
         id="path839"
         d="m 170.05,171.6 q 0.9,0.9 0.9,2.05 0,1.2 -0.9,2 -0.85,0.85 -2,0.85 -1.2,0 -2.1,-0.85 -0.8,-0.8 -0.8,-2 l 0.05,-0.45 4.75,-1.7 0.1,0.1 m -9.4,7.15 q -0.55,0.4 -0.75,0.9 l -0.25,0.3 -0.45,0.1 -0.35,-0.3 -0.05,-0.45 q 0.25,-0.85 1.05,-1.45 1.3,-1 3,-1 1.75,0 2.95,1 0.8,0.6 1.1,1.4 v 0.45 l -0.3,0.3 h -0.45 l -0.35,-0.3 -0.7,-0.95 q -0.95,-0.75 -2.25,-0.75 -1.3,0 -2.2,0.75 m -2.9,-2.25 q -1.25,0 -2.1,-0.85 -0.8,-0.8 -0.8,-2 0,-1.1 0.75,-2 l 4.95,1.3 0.1,0.7 q 0,1.2 -0.9,2 -0.85,0.85 -2,0.85"
         inkscape:connector-curvature="0"
         style="fill:#999999;stroke:none" />
      <path
         id="path841"
         d="m 186.3,174.55 -4.25,-0.55 -1.1,-0.3 -1.4,-1.35 q -0.55,-0.8 -0.6,-1.55 v -0.25 q -0.05,-1.55 0.3,-2.9 0.35,-1.75 1.25,-3.15 l 0.95,-0.5 q 1.85,-1.15 4.05,-1.9 l 0.55,-0.2 q 2.8,-0.9 6.35,-1.05 13.95,-0.45 14.8,8 v 0.3 q -0.05,0.95 -0.8,1.75 -2.6,2.65 -13.15,3.6 l -6.95,0.05"
         inkscape:connector-curvature="0"
         style="fill:#ffffff;stroke:none" />
      <path
         id="path843"
         d="m 186.3,174.55 6.95,-0.05 q 10.55,-0.95 13.15,-3.6 0.25,1.45 0,3.05 l -0.05,0.35 q -1.3,3.8 -14.95,1.5 l -5.1,-1.25"
         inkscape:connector-curvature="0"
         style="fill:#ececec;stroke:none" />
    </g>
    <g
       id="g997"
       transform="matrix(0.26458333,0,0,0.26458333,64.82719,83.68156)"
       inkscape:export-xdpi="199.69597"
       inkscape:export-ydpi="199.69597">
      <path
         id="path877"
         d="m 95.7,219.95 q 5,2.3 9.05,5.9 1.85,3.5 0,7 -8.1,8.75 -21.5,10.6 l -1.55,0.15 h -12.15 -1.2 q -5.45,0 -9.25,-4.1 -3.85,-4.1 -3.85,-9.9 0,-5.8 3.85,-9.9 3.8,-4.1 9.25,-4.1 h 0.95 8.4 q 10.2,0.65 18,4.35"
         inkscape:connector-curvature="0"
         style="fill:#80be1f;stroke:none" />
      <path
         id="path879"
         d="m 95.7,219.95 q -7.8,-3.7 -18,-4.35 h -8.4 q -0.15,-3.35 -1.7,-6.45 l 1.35,-2.1 19.5,4.55 q 6,1.3 7.25,6 v 2.35 m 9.05,5.9 11.15,-5.4 q 4.4,-2.1 4.45,0.4 -2.85,8.9 -2.1,19.25 l -13.5,-7.25 q 1.85,-3.5 0,-7 m -21.5,17.6 0.75,1.65 q -7.8,0.75 -11.5,2.75 -2.9,-1.65 -2.95,-4.25 H 81.7 l 1.55,-0.15"
         inkscape:connector-curvature="0"
         style="fill:#8bcb27;stroke:none" />
      <path
         id="path881"
         d="m 59.45,225.9 6.95,-2.5 0.15,0.15 q 1.35,1.3 1.35,3 0,1.75 -1.35,2.95 -1.25,1.2 -2.9,1.2 -1.8,0 -3.1,-1.2 -1.15,-1.2 -1.15,-2.95 l 0.05,-0.65 m 0.9,6.8 q 1.15,0.9 1.6,2.05 v 0.65 l -0.45,0.45 h -0.65 l -0.5,-0.45 -1.05,-1.35 Q 57.9,232.9 56,232.9 l -0.5,0.05 -0.25,-1.7 H 56 q 2.55,0 4.35,1.45"
         inkscape:connector-curvature="0"
         style="fill:#5f8c19;stroke:none" />
      <path
         id="path883"
         d="m 73.9,232.1 11.1,-1.25 6.65,4.65 -13.5,2.5 -4.25,-5.9"
         inkscape:connector-curvature="0"
         style="fill:#8bcb27;stroke:none" />
    </g>
    <g
       id="g1003"
       transform="matrix(0.26458333,0,0,0.26458333,63.452964,83.314573)"
       inkscape:export-xdpi="199.69597"
       inkscape:export-ydpi="199.69597">
      <path
         id="path885"
         d="m 184.7,225.85 q 1.5,4 0,7 l -0.25,0.35 q -8.05,8.45 -21.2,10.25 l -1.55,0.15 h -12.15 -1.2 q -5.45,0 -9.25,-4.1 -3.85,-4.1 -3.85,-9.9 0,-5.8 3.85,-9.9 3.8,-4.1 9.25,-4.1 h 0.95 8.4 q 10.2,0.65 18,4.35 4.8,2.2 8.75,5.65 l 0.25,0.25"
         inkscape:connector-curvature="0"
         style="fill:#80be1f;stroke:none" />
      <path
         id="path887"
         d="m 184.7,225.85 8.15,-6.1 q 3.2,-2.4 3.25,0.1 -2.1,9.1 -1.55,19.4 l -9.85,-6.4 q 1.5,-3 0,-7 m -21.45,17.6 0.75,1.65 q -5.25,1.2 -7.75,4 -6.65,-2.9 -6.7,-5.5 h 12.15 l 1.55,-0.15 M 149.3,215.6 q -0.15,-3.35 -1.7,-6.45 l 1.35,-2.1 19.5,4.55 q 6,1.3 7.25,6 v 2.35 q -7.8,-3.7 -18,-4.35 h -8.4"
         inkscape:connector-curvature="0"
         style="fill:#8bcb27;stroke:none" />
      <path
         id="path889"
         d="m 139.45,225.9 6.95,-2.5 0.15,0.15 q 1.35,1.3 1.35,3 0,1.75 -1.35,2.95 -1.25,1.2 -2.9,1.2 -1.8,0 -3.1,-1.2 -1.15,-1.2 -1.15,-2.95 l 0.05,-0.65 m 0.9,6.8 q 1.15,0.9 1.6,2.05 v 0.65 l -0.45,0.45 h -0.65 l -0.5,-0.45 q -0.3,-0.8 -1.05,-1.35 -1.4,-1.15 -3.3,-1.15 l -0.5,0.05 -0.25,-1.7 H 136 q 2.55,0 4.35,1.45"
         inkscape:connector-curvature="0"
         style="fill:#5f8c19;stroke:none" />
      <path
         id="path891"
         d="m 154,231.8 10.95,-0.95 7.15,3.45 -13.25,1.8 -4.85,-4.3"
         inkscape:connector-curvature="0"
         style="fill:#8bcb27;stroke:none" />
    </g>
    <g
       transform="matrix(0.26458333,0,0,0.26458333,-49.83661,120.51156)"
       id="g1009"
       inkscape:export-xdpi="199.69597"
       inkscape:export-ydpi="199.69597">
      <path
         style="fill:#8bcb27;stroke:none"
         inkscape:connector-curvature="0"
         id="path945"
         d="m 495.8,121.3 v -2.65 q 0,-10 10,-10 h 30.75 q 3.5,0 5.75,1.2 4.25,2.3 4.25,8.8 v 2.5 q -0.15,-6.15 -4.25,-8.3 -2.25,-1.2 -5.75,-1.2 H 505.8 q -9.8,0 -10,9.65" />
      <path
         style="fill:#80be1f;stroke:none"
         inkscape:connector-curvature="0"
         id="path947"
         d="m 495.8,121.3 q 0.2,-9.65 10,-9.65 h 30.75 q 3.5,0 5.75,1.2 4.1,2.15 4.25,8.3 v 28.65 q -0.1,6.2 -4.25,8.4 -2.25,1.2 -5.75,1.2 H 505.8 q -9.8,0 -10,-9.6 v -28.5" />
      <path
         style="fill:#5f8c19;stroke:none"
         inkscape:connector-curvature="0"
         id="path949"
         d="m 507.2,127.9 9.15,2.45 0.2,1.3 q 0,2.2 -1.7,3.7 -1.55,1.55 -3.7,1.55 -2.3,0 -3.85,-1.55 -1.5,-1.5 -1.5,-3.7 0,-2.05 1.4,-3.75 m 26.75,-0.05 q 1.65,1.65 1.65,3.8 0,2.2 -1.65,3.7 -1.55,1.55 -3.7,1.55 -2.2,0 -3.9,-1.55 -1.45,-1.5 -1.45,-3.7 l 0.05,-0.85 8.8,-3.15 0.2,0.2 M 520.6,139.7 q -2.4,0 -4.05,1.4 -1.05,0.7 -1.4,1.65 l -0.45,0.55 -0.85,0.2 -0.65,-0.55 q -0.2,-0.4 -0.1,-0.85 0.5,-1.6 1.95,-2.7 2.4,-1.85 5.55,-1.85 3.25,0 5.5,1.85 1.45,1.1 2,2.6 0.2,0.35 0,0.85 l -0.55,0.55 q -0.45,0.2 -0.8,0 l -0.65,-0.55 q -0.4,-1.05 -1.3,-1.75 -1.8,-1.4 -4.2,-1.4" />
      <path
         style="fill:#82c41b;stroke:none"
         inkscape:connector-curvature="0"
         id="path953"
         d="m 511.95,122.55 q -1.15,1.2 -2.85,1.2 -1.7,0 -2.9,-1.2 -1.15,-1.15 -1.15,-2.85 0,-1.7 1.15,-2.9 1.2,-1.15 2.9,-1.15 1.7,0 2.85,1.15 1.2,1.2 1.2,2.9 0,1.7 -1.2,2.85 m 2.25,4.5 q -0.4,-0.4 -0.4,-1 0,-0.6 0.4,-1.05 0.45,-0.4 1.05,-0.4 0.6,0 1,0.4 0.45,0.45 0.45,1.05 l -0.45,1 q -0.4,0.45 -1,0.45 -0.6,0 -1.05,-0.45 m 10.65,-7.7 q 1,1 1,2.4 0,1.4 -1,2.4 -1,1 -2.4,1 -1.4,0 -2.4,-1 -1,-1 -1,-2.4 0,-1.4 1,-2.4 1,-1 2.4,-1 1.4,0 2.4,1 m 14.65,26.3 q 1.1,1.1 1.1,2.6 0,1.5 -1.1,2.55 -1.05,1.1 -2.55,1.1 -1.5,0 -2.6,-1.1 -1.05,-1.05 -1.05,-2.55 0,-1.5 1.05,-2.6 1.1,-1.05 2.6,-1.05 1.5,0 2.55,1.05 m -11.65,7.3 q -0.8,-0.8 -0.8,-1.9 0,-1.1 0.8,-1.9 0.8,-0.8 1.9,-0.8 1.1,0 1.9,0.8 0.8,0.8 0.8,1.9 0,1.1 -0.8,1.9 -0.8,0.8 -1.9,0.8 -1.1,0 -1.9,-0.8" />
    </g>
  </g>
</svg>
