<?xml version="1.0" encoding="UTF-8" standalone="no"?>
<!-- Created with Inkscape (http://www.inkscape.org/) -->

<svg
   xmlns:dc="http://purl.org/dc/elements/1.1/"
   xmlns:cc="http://creativecommons.org/ns#"
   xmlns:rdf="http://www.w3.org/1999/02/22-rdf-syntax-ns#"
   xmlns:svg="http://www.w3.org/2000/svg"
   xmlns="http://www.w3.org/2000/svg"
   xmlns:sodipodi="http://sodipodi.sourceforge.net/DTD/sodipodi-0.dtd"
   xmlns:inkscape="http://www.inkscape.org/namespaces/inkscape"
   width="210mm"
   height="297mm"
   viewBox="0 0 210 297"
   version="1.1"
   id="svg1197"
   inkscape:version="0.92.3 (2405546, 2018-03-11)"
   sodipodi:docname="pink-alien.svg">
  <defs
     id="defs1191" />
  <sodipodi:namedview
     id="base"
     pagecolor="#ffffff"
     bordercolor="#666666"
     borderopacity="1.0"
     inkscape:pageopacity="0.0"
     inkscape:pageshadow="2"
     inkscape:zoom="7.9195959"
     inkscape:cx="335.71429"
     inkscape:cy="729.81322"
     inkscape:document-units="mm"
     inkscape:current-layer="layer1"
     showgrid="false"
     inkscape:window-width="1920"
     inkscape:window-height="1017"
     inkscape:window-x="-8"
     inkscape:window-y="-8"
     inkscape:window-maximized="1" />
  <metadata
     id="metadata1194">
    <rdf:RDF>
      <cc:Work
         rdf:about="">
        <dc:format>image/svg+xml</dc:format>
        <dc:type
           rdf:resource="http://purl.org/dc/dcmitype/StillImage" />
        <dc:title></dc:title>
      </cc:Work>
    </rdf:RDF>
  </metadata>
  <g
     inkscape:label="Layer 1"
     inkscape:groupmode="layer"
     id="layer1">
    <rect
       style="fill:#999999;fill-opacity:1;stroke:none;stroke-width:0.12499999;stroke-miterlimit:4;stroke-dasharray:none;stroke-opacity:1"
       id="rect1775"
       width="84.457169"
       height="100.49334"
       x="60.670181"
       y="63.940971" />
    <g
       id="g1773"
       transform="rotate(90,54.428575,443.65477)"
       inkscape:export-xdpi="96.209999"
       inkscape:export-ydpi="96.209999">
      <path
         id="path945"
         d="m -279.34344,413.15964 v 4.84188 h -2.20927 l -0.93927,-4.84188 c -0.0794,-0.47625 0.005,-0.89059 0.25136,-1.24354 0.29104,-0.37941 0.67468,-0.56436 1.15093,-0.55562 0.49398,-0.009 0.91282,0.17621 1.25677,0.55562 0.33497,0.35295 0.49848,0.76729 0.48948,1.24354 z m -9.78958,0 c -0.009,-0.47625 0.15425,-0.89059 0.48948,-1.24354 0.34396,-0.37941 0.76279,-0.56436 1.25677,-0.55562 0.47625,-0.009 0.8599,0.17621 1.15094,0.55562 0.24712,0.35295 0.33073,0.76729 0.25135,1.24354 l -0.93927,4.84188 h -2.20927 z"
         style="fill:#f19cb7;stroke-width:0.26458332"
         inkscape:connector-curvature="0" />
      <path
         id="path947"
         d="m -289.92677,404.19027 c 0,-1.57004 0.55563,-2.91042 1.66688,-4.02167 1.11125,-1.11125 2.45189,-1.66687 4.02166,-1.66687 1.56978,0 2.91042,0.55562 4.0214,1.66687 1.11125,1.11125 1.66714,2.45189 1.66714,4.02167 v 8.04333 c 0,0.9615 -0.55589,1.78144 -1.66714,2.46063 -1.11098,0.67019 -2.45189,1.00568 -4.0214,1.00568 -1.57004,0 -2.91041,-0.33549 -4.02166,-1.00568 -1.11125,-0.67893 -1.66688,-1.49913 -1.66688,-2.46063 z"
         style="fill:#f19cb7;stroke-width:0.26458332"
         inkscape:connector-curvature="0" />
      <path
         id="path949"
         d="m -275.91708,412.2336 c -0.009,0.18521 -0.0749,0.33973 -0.19844,0.46302 -0.13229,0.12356 -0.29104,0.18521 -0.47625,0.18521 -0.18521,0 -0.33946,-0.0661 -0.46302,-0.19844 -0.12356,-0.13229 -0.18521,-0.29104 -0.18521,-0.47625 0.0267,-1.44647 -0.57758,-2.15212 -1.81239,-2.11666 v -2.43417 l 0.0794,0.0265 c 2.0902,0.82021 3.10885,2.33733 3.05593,4.55083 z m -15.50459,0.44979 c -0.12356,0.13229 -0.27781,0.19844 -0.46302,0.19844 -0.1852,0 -0.34395,-0.0616 -0.47625,-0.18521 -0.12356,-0.12329 -0.1897,-0.27781 -0.19843,-0.46302 -0.0529,-2.2135 0.96546,-3.73062 3.05593,-4.55083 l 0.0794,-0.0265 v 2.43416 c -1.23481,-0.0354 -1.83886,0.67019 -1.8124,2.11667 0,0.18521 -0.0616,0.34396 -0.18521,0.47625 z"
         style="fill:#f19cb7;stroke-width:0.26458332"
         inkscape:connector-curvature="0" />
      <path
         id="path951"
         d="m -284.15885,401.88839 c 0.35269,0 0.66146,0.13229 0.92604,0.39688 0.27331,0.27331 0.4101,0.59081 0.4101,0.9525 0,0.37041 -0.13679,0.67918 -0.4101,0.92604 -0.26458,0.27358 -0.57335,0.4101 -0.92604,0.4101 -0.38815,0 -0.71888,-0.13652 -0.99219,-0.4101 -0.25585,-0.24686 -0.38365,-0.55563 -0.38365,-0.92604 0,-0.36142 0.1278,-0.67892 0.38365,-0.9525 0.27331,-0.26459 0.60404,-0.39688 0.99219,-0.39688 z m 1.16416,5.15938 0.18521,-0.33073 c 0.0267,-0.0706 0.0749,-0.11906 0.14552,-0.14552 0.0616,-0.0355 0.1278,-0.0355 0.19844,0 l 0.17198,0.13229 c 0.0352,0.0794 0.0352,0.15425 0,0.22489 -0.10583,0.24713 -0.28205,0.46752 -0.52917,0.66146 -0.37941,0.30851 -0.83793,0.46302 -1.37583,0.46302 -0.54663,0 -1.00542,-0.15451 -1.37583,-0.46302 -0.28205,-0.19394 -0.45429,-0.42333 -0.51568,-0.68791 -0.0267,-0.0796 -0.0177,-0.14579 0.0265,-0.19844 0.0265,-0.0796 0.0749,-0.12356 0.14552,-0.13229 l 0.23813,0.0132 0.11906,0.14552 0.19844,0.33073 0.1188,0.11906 c 0.2913,0.2204 0.63949,0.33073 1.0451,0.33073 0.40561,0 0.75433,-0.11033 1.0451,-0.33073 z m 0.52917,-0.47625 h 0.0132 z"
         style="fill:#a55b72;stroke-width:0.26458332"
         inkscape:connector-curvature="0" />
      <path
         id="path953"
         d="m -283.23281,402.28527 c -0.26458,-0.26459 -0.57335,-0.39688 -0.92604,-0.39688 -0.38815,0 -0.71888,0.13229 -0.99219,0.39688 -0.25585,0.27331 -0.38365,0.59081 -0.38365,0.9525 0,0.37041 0.1278,0.67918 0.38365,0.92604 0.27331,0.27358 0.60404,0.4101 0.99219,0.4101 0.35269,0 0.66146,-0.13652 0.92604,-0.4101 0.27331,-0.24686 0.4101,-0.55563 0.4101,-0.92604 0,-0.36142 -0.13679,-0.67919 -0.4101,-0.9525 z m -0.91281,-1.05834 c 0.52916,0 0.99218,0.19844 1.38906,0.59532 0.41434,0.41433 0.62177,0.89535 0.62177,1.44198 l -0.0265,0.34395 c -0.0794,0.39688 -0.27781,0.74507 -0.59531,1.04511 -0.39688,0.4056 -0.8599,0.60854 -1.38907,0.60854 -0.58208,0 -1.07579,-0.20294 -1.48166,-0.60854 -0.30004,-0.30004 -0.47651,-0.64823 -0.52917,-1.04511 -0.0267,-0.11482 -0.0397,-0.22912 -0.0397,-0.34395 0,-0.54663 0.1897,-1.02765 0.56885,-1.44198 0.40587,-0.39688 0.89958,-0.59532 1.48167,-0.59532 z"
         style="fill:#ffffff;stroke-width:0.26458332"
         inkscape:connector-curvature="0" />
      <path
         id="path955"
         d="m -284.23823,395.03568 c 2.01084,0 3.73486,0.71438 5.17261,2.14339 1.41975,1.41976 2.12989,3.13532 2.12989,5.14589 0,2.01982 -0.71014,3.74385 -2.12989,5.17286 -1.43775,1.41976 -3.16177,2.1299 -5.17261,2.1299 -2.0111,0 -3.72639,-0.71014 -5.14614,-2.1299 -1.43775,-1.42875 -2.15636,-3.15304 -2.15636,-5.17286 0,-2.01084 0.71888,-3.72613 2.15636,-5.14589 1.41975,-1.42901 3.13531,-2.14339 5.14614,-2.14339 z"
         enable-background="new    "
         style="opacity:0.2;fill:#ffffff;stroke-width:0.26458332"
         inkscape:connector-curvature="0"
         sodipodi:nodetypes="scscscscs" />
      <path
         id="path957"
         d="m -279.06562,397.17881 c -1.43775,-1.42875 -3.16177,-2.14339 -5.17261,-2.14339 -2.0111,0 -3.72639,0.71437 -5.14614,2.14339 -1.43775,1.41975 -2.15636,3.13531 -2.15636,5.14588 0,2.01983 0.71888,3.74385 2.15636,5.17287 1.41975,1.41975 3.13531,2.12989 5.14614,2.12989 2.01084,0 3.73486,-0.71014 5.17261,-2.12989 1.41975,-1.42875 2.12989,-3.15304 2.12989,-5.17287 0,-2.01057 -0.71014,-3.72586 -2.12989,-5.14588 z m -13.79802,5.14615 c 0,-2.38125 0.84666,-4.40955 2.54026,-6.08542 1.67561,-1.68434 3.70417,-2.52677 6.08542,-2.52677 2.38125,0 4.41827,0.84243 6.11187,2.52677 1.67561,1.67587 2.51354,3.70417 2.51354,6.08542 0,2.38998 -0.83793,4.42753 -2.51354,6.11213 -1.69333,1.67561 -3.73062,2.51355 -6.11187,2.51355 -2.38125,0 -4.40981,-0.83794 -6.08542,-2.51355 -1.6936,-1.6846 -2.54026,-3.72215 -2.54026,-6.11213 z"
         style="fill:#ffffff;stroke-width:0.26458332"
         inkscape:connector-curvature="0" />
      <path
         style="opacity:0.30199998;fill:#ffffff;stroke-width:0.99999994"
         d="m 351.42188,369.18164 c -0.56012,1.19414 -0.85157,2.49955 -0.85157,3.92383 0,2.59997 0.93381,4.81637 2.80078,6.65039 1.833,1.83299 4.04843,2.75 6.64844,2.75 2.59998,0 4.81736,-0.91701 6.65039,-2.75 0.12284,-0.12291 0.2311,-0.25256 0.3457,-0.37891 -0.88885,-1.43727 -1.96909,-2.79526 -3.24609,-4.07226 -3.50927,-3.51013 -7.62698,-5.5465 -12.34765,-6.12305 z"
         transform="matrix(0.26458333,0,0,0.26458333,-376.46429,300.86905)"
         id="path959"
         inkscape:connector-curvature="0" />
      <path
         id="path1043"
         d="m -281.92312,412.3262 c 0.28204,0.0704 0.49371,0.22913 0.63473,0.47625 0.14976,0.25559 0.18521,0.52467 0.10584,0.80698 -0.0706,0.27332 -0.2294,0.48525 -0.47625,0.635 -0.25586,0.14103 -0.52467,0.17622 -0.80725,0.10557 -0.27331,-0.0794 -0.48498,-0.24685 -0.63473,-0.50244 -0.14103,-0.24712 -0.17648,-0.50721 -0.10584,-0.78052 0.0794,-0.28231 0.24712,-0.49371 0.50271,-0.635 0.24712,-0.15002 0.50721,-0.18521 0.78079,-0.10584 z m -1.97115,1.65365 c 0.0794,0.13229 0.10134,0.26882 0.0661,0.4101 -0.0442,0.14976 -0.13229,0.26009 -0.26459,0.33073 l -0.4101,0.0529 c -0.14129,-0.0354 -0.25136,-0.11906 -0.33073,-0.25135 -0.0709,-0.1323 -0.0884,-0.26908 -0.0529,-0.41011 0.0439,-0.14102 0.1278,-0.25135 0.25136,-0.33073 l 0.42333,-0.0529 c 0.14102,0.0354 0.24712,0.11907 0.3175,0.25136 z m -1.79917,-1.62719 c 0.19368,0.0529 0.34396,0.17198 0.44953,0.35719 0.10583,0.18521 0.13679,0.37941 0.0929,0.58208 -0.0616,0.20294 -0.18521,0.35746 -0.37042,0.46302 -0.1852,0.10584 -0.37491,0.1323 -0.56859,0.0794 -0.21193,-0.0527 -0.37041,-0.17171 -0.47651,-0.35719 -0.10557,-0.18521 -0.12779,-0.37941 -0.0661,-0.58208 0.0442,-0.20294 0.15902,-0.35719 0.34423,-0.46302 0.18494,-0.10584 0.38338,-0.13229 0.59504,-0.0794 z"
         enable-background="new    "
         style="opacity:0.50199998;fill:#f3afc5;stroke-width:0.26458332"
         inkscape:connector-curvature="0" />
    </g>
  </g>
</svg>
